<?xml version="1.0" encoding="UTF-8"?>
<!-- Created with Inkscape (http://www.inkscape.org/) -->
<svg width="224.68" height="224.68" version="1.1" viewBox="0 0 59.447 59.447" xmlns="http://www.w3.org/2000/svg">
 <g transform="translate(-39.687 -113.77)">
  <g stroke-linecap="round" stroke-linejoin="round" stroke-width=".79375">
   <path transform="matrix(.55324 .22857 -.22857 .55324 63.808 48.243)" d="m92.151 166.24-22.741 9.4195-22.741-9.4195-9.4195-22.741 9.4195-22.741 22.741-9.4195 22.741 9.4195 9.4195 22.741z" fill="#4bfbf8"/>
   <path d="m81.744 173.2-4.951-11.922 10.409-10.428 11.931 4.9292z" fill="#67fbfa"/>
   <path d="m99.133 155.78-11.931-4.9292-0.01344-14.734 11.922-4.951z" fill="#05d7d3"/>
   <path d="m99.111 131.16-11.922 4.951-10.428-10.409 4.9292-11.931z" fill="#038b88"/>
   <path d="m81.69 113.77-4.9292 11.931-14.734 0.0134-4.951-11.922z" fill="#a6fcfc"/>
   <path d="m81.744 173.2-4.951-11.922-14.734 0.0134-4.9292 11.931z" fill="#05d6d3"/>
   <path d="m57.13 173.22 4.9292-11.931-10.428-10.409-11.922 4.951z" fill="#08b6b0"/>
   <path d="m39.709 155.83 11.922-4.951-0.01345-14.734-11.931-4.9292z" fill="#05dedd"/>
   <path d="m39.687 131.22 11.931 4.9292 10.409-10.428-4.951-11.922z" fill="#ccfdfd"/>
  </g>
 </g>
</svg>
